<?xml version="1.0" encoding="utf-8"?>
<!-- Generator: Adobe Illustrator 24.0.3, SVG Export Plug-In . SVG Version: 6.00 Build 0)  -->
<svg version="1.1" id="Capa_1" xmlns="http://www.w3.org/2000/svg" xmlns:xlink="http://www.w3.org/1999/xlink" x="0px" y="0px"
	 viewBox="0 0 512 512" style="enable-background:new 0 0 512 512;" xml:space="preserve">
<style type="text/css">
	.st0{fill:#33A23D;}
	.st1{opacity:0.3;}
	.st2{fill:#FFFFFF;}
</style>
<circle class="st0" cx="257.8" cy="256" r="230.7"/>
<g>
	<g class="st1">
		<path d="M184.2,348.6c63.8-57.2,101.6-101.3,101.6-137.5c0-23.8-13-38.1-35.2-38.1c-17.1,0-31.4,11.1-43.2,24.1L182,171.7
			c21.6-22.9,42.6-35.6,74.6-35.6c44.5,0,74,28.6,74,72.4c0,42.6-35.2,88.3-78.1,130.2c11.7-1.3,27.3-2.5,38.1-2.5h51.1v39.4H184.2
			V348.6z"/>
	</g>
	<g>
		<g>
			<path class="st2" d="M184.2,341.6c63.8-57.2,101.6-101.3,101.6-137.5c0-23.8-13-38.1-35.2-38.1c-17.1,0-31.4,11.1-43.2,24.1
				L182,164.7c21.6-22.9,42.6-35.6,74.6-35.6c44.5,0,74,28.6,74,72.4c0,42.6-35.2,88.3-78.1,130.2c11.7-1.3,27.3-2.5,38.1-2.5h51.1
				v39.4H184.2V341.6z"/>
		</g>
	</g>
</g>
</svg>
